G04 ===== Begin FILE IDENTIFICATION =====*
G04 File Format:  Gerber RS274X*
G04 ===== End FILE IDENTIFICATION =====*
%FSLAX34Y34*%
%MOMM*%
%SFA1.0000B1.0000*%
%OFA0.0B0.0*%
%ADD10C,0.025000*%
%LNcond*%
%IPPOS*%
%LPD*%
G75*
G36*
G01X-325818Y410455D02*
G01X-323166D01*
G01Y368455D01*
G01X-295871Y341160D01*
G01X-235871D01*
G01Y348731D01*
G01X-110548D01*
G01Y346401D01*
G01X-110549D01*
G01Y179819D01*
G01X-115528D01*
G01Y5702D01*
G01X-240738D01*
G01Y12071D01*
G01X-362195D01*
G01Y15775D01*
G01X-460505D01*
G01Y-15774D01*
G01X-362195D01*
G01Y-12071D01*
G01X-240738D01*
G01Y-5702D01*
G01X-98364D01*
G01Y-12574D01*
G01X1006D01*
G01Y-13579D01*
G01X1005D01*
G01Y-46579D01*
G01X-2195D01*
G01Y-224458D01*
G01X29354D01*
G01Y-46579D01*
G01X26153D01*
G01Y-13579D01*
G01X0Y12574D01*
G01X-81200D01*
G01Y149776D01*
G01X-52627D01*
G01X-36578Y133727D01*
G01X-36579Y133726D01*
G01X16455Y80692D01*
G01X23163Y87400D01*
G01X24931Y85632D01*
G01X24930Y85631D01*
G01X91435Y58086D01*
G01X144135D01*
G01Y62869D01*
G01X273987D01*
G01Y94418D01*
G01X144135D01*
G01Y99200D01*
G01X69508D01*
G01X54004Y114705D01*
G01X52236Y116473D01*
G01X58944Y123181D01*
G01X5910Y176215D01*
G01X5909Y176214D01*
G01X-75325Y209863D01*
G01Y209862D01*
G01X-86179D01*
G01Y346401D01*
G01X37536D01*
G01Y341575D01*
G01X158703D01*
G01Y338509D01*
G01X273987D01*
G01Y370058D01*
G01X158703D01*
G01Y366991D01*
G01X37536D01*
G01Y362165D01*
G01X-98364D01*
G01Y359835D01*
G01X-235871D01*
G01Y367406D01*
G01X-295871D01*
G01Y367405D01*
G01X-296920D01*
G01Y410455D01*
G01X-294269D01*
G01Y471628D01*
G01X-325818D01*
G01Y410455D01*
G37*
M02*

